name C:\Users\u0150099\Documents\master_thesis\3dpredictsim\Results\debug\Fal_s1_mtjc2_sc_cspx10_cg2_ATx70_MTc2_MTPm_k1_d01_MTJm_nl_MG_exp5_table_d01_PF_Natali2010_x3_ls146_ig21_wAk5e+04_wa2e+03_wpM1e+03.mot
datacolumns 128
datarows 4
range 0.00000000 0.03179850
endheader
time	pelvis_tilt	pelvis_list	pelvis_rotation	pelvis_tx	pelvis_ty	pelvis_tz	hip_flexion_l	hip_adduction_l	hip_rotation_l	hip_flexion_r	hip_adduction_r	hip_rotation_r	knee_angle_l	knee_angle_r	ankle_angle_l	ankle_angle_r	subtalar_angle_l	subtalar_angle_r	mtj_angle_l	mtj_angle_r	mtp_angle_l	mtp_angle_r	lumbar_extension	lumbar_bending	lumbar_rotation	arm_flex_l	arm_add_l	arm_rot_l	arm_flex_r	arm_add_r	arm_rot_r	elbow_flex_l	elbow_flex_r	pro_sup_l	pro_sup_r	glut_med1_l/activation	glut_med2_l/activation	glut_med3_l/activation	glut_min1_l/activation	glut_min2_l/activation	glut_min3_l/activation	semimem_l/activation	semiten_l/activation	bifemlh_l/activation	bifemsh_l/activation	sar_l/activation	add_long_l/activation	add_brev_l/activation	add_mag1_l/activation	add_mag2_l/activation	add_mag3_l/activation	tfl_l/activation	pect_l/activation	grac_l/activation	glut_max1_l/activation	glut_max2_l/activation	glut_max3_l/activation	iliacus_l/activation	psoas_l/activation	quad_fem_l/activation	gem_l/activation	peri_l/activation	rect_fem_l/activation	vas_med_l/activation	vas_int_l/activation	vas_lat_l/activation	med_gas_l/activation	lat_gas_l/activation	soleus_l/activation	tib_post_l/activation	flex_dig_l/activation	flex_hal_l/activation	tib_ant_l/activation	per_brev_l/activation	per_long_l/activation	per_tert_l/activation	ext_dig_l/activation	ext_hal_l/activation	ercspn_l/activation	intobl_l/activation	extobl_l/activation	glut_med1_r/activation	glut_med2_r/activation	glut_med3_r/activation	glut_min1_r/activation	glut_min2_r/activation	glut_min3_r/activation	semimem_r/activation	semiten_r/activation	bifemlh_r/activation	bifemsh_r/activation	sar_r/activation	add_long_r/activation	add_brev_r/activation	add_mag1_r/activation	add_mag2_r/activation	add_mag3_r/activation	tfl_r/activation	pect_r/activation	grac_r/activation	glut_max1_r/activation	glut_max2_r/activation	glut_max3_r/activation	iliacus_r/activation	psoas_r/activation	quad_fem_r/activation	gem_r/activation	peri_r/activation	rect_fem_r/activation	vas_med_r/activation	vas_int_r/activation	vas_lat_r/activation	med_gas_r/activation	lat_gas_r/activation	soleus_r/activation	tib_post_r/activation	flex_dig_r/activation	flex_hal_r/activation	tib_ant_r/activation	per_brev_r/activation	per_long_r/activation	per_tert_r/activation	ext_dig_r/activation	ext_hal_r/activation	ercspn_r/activation	intobl_r/activation	extobl_r/activation	
          0.00000000	         -2.93016580	         -1.38056006	          3.01770956	          0.00000000	          0.90664181	         -0.00276610	        -16.96701768	          1.45515469	         10.48868424	         28.63586541	          3.32246529	         -0.58357535	         -9.84499705	        -10.60585650	          6.07051594	          7.99193689	          3.28738015	         -2.58176972	         -2.08161801	          1.88422190	         19.61730833	         -4.60293182	         -3.53052666	          0.61495209	         -1.74260226	          4.07955191	        -13.81941557	         19.37641029	         -5.90284181	        -13.49680592	          4.49220626	         33.53306408	         26.56071961	         86.51662706	         86.51662706	          0.42106376	          0.05848655	          0.05000002	          0.59103630	          0.17729337	          0.07752194	          0.05000065	          0.05000008	          0.05000006	          0.08152705	          0.09582730	          0.05000003	          0.05000005	          0.05000009	          0.05000031	          0.05000030	          0.52781999	          0.05000023	          0.05000009	          0.05000047	          0.05000026	          0.05000019	          0.36569837	          0.74322541	          0.05000001	          0.05000011	          0.05000004	          0.31290614	          0.09367433	          0.10040096	          0.08411796	          0.39335774	          0.45284216	          0.35849324	          0.29732864	          0.39279906	          0.42694868	          0.05000000	          0.05883294	          0.09063681	          0.05000002	          0.05000001	          0.08145564	          0.05000000	          0.05000000	          0.05000000	          0.05000070	          0.05000012	          0.05883287	          0.05000005	          0.05000008	          0.05000030	          0.21067096	          0.06922627	          0.30428487	          0.06772144	          0.05000030	          0.13368755	          0.17633582	          0.10661933	          0.14346294	          0.15654962	          0.05001278	          0.05000073	          0.13289191	          0.05883294	          0.05883299	          0.11247922	          0.05000005	          0.05000004	          0.12392077	          0.05000017	          0.05000006	          0.05000003	          0.05000095	          0.05000085	          0.05000067	          0.07368935	          0.05000017	          0.05000001	          0.05000006	          0.05927825	          0.05000136	          0.28459060	          0.15855380	          0.11551806	          0.26293363	          0.55270117	          0.25830133	          0.06035066	          0.07693271	          0.10899223	
          0.01059950	         -2.92966066	         -1.44863900	          3.26548702	          0.01677228	          0.90615397	         -0.00256522	        -17.01992146	          1.15224178	         10.31716471	         28.23770072	          3.69532455	         -0.49823308	        -11.38255454	        -10.85377768	          5.22604010	          7.54149546	          4.45479117	         -2.80058773	         -3.21043560	          2.09796701	         22.41590350	         -5.17617423	         -3.35744729	          0.78758791	         -1.83960951	          3.70329111	        -13.76954493	         19.28904260	         -6.63267410	        -13.46041363	          4.05600894	         34.66893488	         26.13512987	         86.51662706	         86.51662706	          0.35784715	          0.05000020	          0.05000005	          0.50230074	          0.15067535	          0.06588349	          0.05000040	          0.05000005	          0.05000004	          0.06928694	          0.08144037	          0.05100005	          0.05000015	          0.05000015	          0.05000043	          0.05000016	          0.47350409	          0.05878076	          0.05000021	          0.05000054	          0.05000031	          0.05000024	          0.31079403	          0.65222479	          0.05000005	          0.05000021	          0.05000025	          0.26592783	          0.08764153	          0.08992673	          0.07548884	          0.33430074	          0.38485444	          0.30467064	          0.25268903	          0.33382597	          0.36284854	          0.05246872	          0.05000003	          0.07702900	          0.05000002	          0.05000000	          0.06922625	          0.05287271	          0.05763132	          0.05517203	          0.05883290	          0.05883290	          0.05000003	          0.05883294	          0.05883293	          0.05883276	          0.17904188	          0.05883296	          0.26257549	          0.05883288	          0.05000034	          0.14823461	          0.21252702	          0.09061204	          0.12192419	          0.16968432	          0.05000006	          0.08146648	          0.11294027	          0.05000009	          0.05000009	          0.18179032	          0.08013429	          0.05542184	          0.34677253	          0.16852686	          0.08787294	          0.05000019	          0.05000013	          0.05000014	          0.05000012	          0.07600733	          0.06077968	          0.05000036	          0.05883286	          0.06922710	          0.07338072	          0.27722774	          0.15551733	          0.10418573	          0.30128355	          0.58697217	          0.28420866	          0.05128988	          0.06538237	          0.09262861	
          0.02119900	         -2.92592121	         -1.53479595	          3.50064357	          0.03380520	          0.90571366	         -0.00234693	        -16.95619337	          0.83017871	         10.10463576	         27.84867431	          4.02672716	         -0.38973070	        -13.08500207	        -11.70918760	          4.16899712	          6.75047693	          5.65456967	         -2.98199061	         -4.38642498	          2.21656644	         25.29221391	         -5.59479410	         -3.16991980	          0.97961316	         -1.92741420	          3.25198000	        -13.72121029	         19.14947952	         -7.36722003	        -13.44971373	          3.83512076	         35.84044280	         25.68073344	         86.51662706	         86.51662706	          0.30412156	          0.05882149	          0.05883289	          0.42688753	          0.12805363	          0.05599214	          0.05002457	          0.05655044	          0.05883288	          0.05888452	          0.06921334	          0.16380982	          0.26804475	          0.10449481	          0.05883287	          0.12815820	          0.40241435	          0.05000029	          0.05882327	          0.05883078	          0.05883259	          0.05883283	          0.26413278	          0.61334861	          0.05883289	          0.05883288	          0.05000023	          0.22600261	          0.13402313	          0.13973874	          0.11764352	          0.28411029	          0.32707408	          0.25892873	          0.21475141	          0.28370681	          0.30837208	          0.15569852	          0.05000000	          0.06546421	          0.05000001	          0.05000000	          0.05883293	          0.07578866	          0.05883295	          0.05883290	          0.05000000	          0.05000002	          0.14073521	          0.05000003	          0.05000002	          0.05000003	          0.15216133	          0.05000006	          0.22315356	          0.05000002	          0.06922598	          0.12597939	          0.34500070	          0.41183370	          0.29919286	          0.21029375	          0.05000028	          0.06923586	          0.09598410	          0.11667037	          0.13740427	          0.19966352	          0.06922615	          0.06922620	          0.51941255	          0.14322500	          0.07468010	          0.05883300	          0.07510744	          0.09192180	          0.05884714	          0.06922618	          0.06922618	          0.06611587	          0.05000003	          0.05883369	          0.06236373	          0.33676782	          0.19312172	          0.12684257	          0.40866566	          0.60418670	          0.24153884	          0.05000000	          0.05556615	          0.07872176	
          0.03179850	         -2.91915851	         -1.65374916	          3.71661247	          0.05098166	          0.90532488	         -0.00214499	        -16.73886604	          0.49415265	          9.85792726	         27.41579906	          4.27302517	         -0.21757615	        -15.01224745	        -12.78137191	          2.91617703	          5.81333054	          6.85299737	         -3.14671215	         -5.51079333	          2.37919473	         27.86197653	         -5.77884514	         -2.97428167	          1.20809665	         -2.00417159	          2.74108166	        -13.67141964	         18.98010880	         -8.07401542	        -13.47183847	          3.82750477	         37.04442514	         25.16949000	         86.51662706	         86.51662706	          0.27326859	          0.05000001	          0.05000000	          0.36279674	          0.10882824	          0.05000004	          0.05000058	          0.05000005	          0.05000004	          0.05004387	          0.05882212	          0.17217449	          0.28684348	          0.08880648	          0.05000065	          0.10891716	          0.48501362	          0.05884308	          0.05000010	          0.05000022	          0.05000015	          0.05000014	          0.22447707	          0.61224109	          0.05000001	          0.05000007	          0.05000001	          0.19207158	          0.11390153	          0.11875901	          0.09998107	          0.24145521	          0.27796861	          0.22005430	          0.18250958	          0.24111231	          0.26207446	          0.24065541	          0.09404036	          0.05563578	          0.33052115	          0.18317406	          0.05000002	          0.11361984	          0.05000003	          0.05000002	          0.38070022	          0.39682914	          0.42199169	          0.44334848	          0.40758611	          0.31151272	          0.13398679	          0.13298362	          0.18965033	          0.06922641	          0.05883276	          0.10706542	          0.29320390	          0.35000284	          0.25427352	          0.25893822	          0.05000012	          0.05884135	          0.17457865	          0.28673960	          0.24477061	          0.27534570	          0.05883289	          0.05883289	          0.44143024	          0.12172186	          0.11018199	          0.05000007	          0.06383115	          0.07812108	          0.05001210	          0.05883287	          0.05883287	          0.05618952	          0.05571812	          0.05000067	          0.05300073	          0.37137202	          0.16412729	          0.10779908	          0.34731047	          0.76807360	          0.55558048	          0.07529890	          0.08145567	          0.06690282	
